PathFileType	4	(X/Y/Z)	pose_F01_0-96.trc
DataRate	CameraRate	NumFrames	NumMarkers	Units	OrigDataRate	OrigDataStartFrame	OrigNumFrames
30	30	7	21	m	30	12	96
Frame#	Time	CHip			RHip			RKnee			RAnkle			RBigToe			RSmallToe			RHeel			LHip			LKnee			LAnkle			LBigToe			LSmallToe			LHeel			Neck			Nose			RShoulder			RElbow			RWrist			LShoulder			LElbow			LWrist			
		X1	Y1	Z1	X2	Y2	Z2	X3	Y3	Z3	X4	Y4	Z4	X5	Y5	Z5	X6	Y6	Z6	X7	Y7	Z7	X8	Y8	Z8	X9	Y9	Z9	X10	Y10	Z10	X11	Y11	Z11	X12	Y12	Z12	X13	Y13	Z13	X14	Y14	Z14	X15	Y15	Z15	X16	Y16	Z16	X17	Y17	Z17	X18	Y18	Z18	X19	Y19	Z19	X20	Y20	Z20	X21	Y21	Z21	
12	0.4	-0.1762419655657957	1.872030808019735	-0.5335351635037456	-0.18927600993096008	1.869870112979142	-0.46632118370205283	-0.1784915752544628	1.724057137623334	-0.4547535662947134	-0.18843835188922445	1.67406248833791	-0.43714442783672414							-0.16339081655689036	1.563512851446416	-0.44834747786038387	-0.16140621815574005	1.873270763404018	-0.5887259629653019	-0.15432300097579243	1.7246901313803351	-0.5526521602926618	-0.15612804597857136	1.5816855471778417	-0.5205522912623299	-0.18952055883159075	1.5435012251049065	-0.5429005142880617	-0.17664824824226116	1.5534918239357882	-0.5608388298109845	-0.15016577996613717	1.5745447555310585	-0.5054736605507736	-0.1651152785701553	2.0382054059222043	-0.5425342311859923	-0.19918513494680107	2.102039554620117	-0.5635121052331389	-0.1823414048308077	2.0353830522123855	-0.4558080800385113	-0.18909695654361203	1.9491740049209976	-0.4299224958605212	-0.2051723454827171	1.8800549643672158	-0.40556454930804875	-0.1427395346840567	2.0412809993260477	-0.6285525265815165	-0.1349284143400315	1.9579683307052265	-0.6430228825119456	-0.13838130157758496	1.8752722803209838	-0.6476901009727485
13	0.43333333333333335	-0.1760936304608156	1.8705734793712805	-0.5333488405938551	-0.1889708954154685	1.8695141175196195	-0.46629479354320985	-0.17626858890209726	1.7218269483877289	-0.4569158764367462	-0.18843835188922445	1.67406248833791	-0.43714442783672414							-0.16339081655689036	1.563512851446416	-0.44834747786038387	-0.1613605057620292	1.872968933742467	-0.5887461630020866	-0.15329133297605427	1.7231341710125492	-0.5494567102989071	-0.1572674751308078	1.5819439198304233	-0.5151064851790459	-0.189834488444068	1.542302028501164	-0.5422787409988865	-0.17576225135111226	1.5508264038505317	-0.5571593256995262	-0.15065780300757886	1.5765985098090458	-0.5053791183542943	-0.16509207424150624	2.0382325880201058	-0.5425364755249434	-0.1992121420587584	2.10202251680902	-0.563561218492629	-0.18232007998539349	2.0353878685726774	-0.4558345479200725	-0.18891135694255082	1.9465634216451007	-0.4291682658991978	-0.20354105895765842	1.870774883524591	-0.40910414733596634	-0.14272444907456058	2.0412034769976133	-0.6285038365691422	-0.13498389882869966	1.95823167320333	-0.6434503526993858	-0.1382989223835728	1.8779568195570975	-0.6479698448321625
14	0.4666666666666667	-0.17648464560379748	1.8691126612644402	-0.5332545843134499	-0.19042323394164695	1.8659466299438248	-0.4690116296557635	-0.17649608528486863	1.72072967060485	-0.45653192077034604	-0.18843835188922445	1.67406248833791	-0.43714442783672414							-0.16339081655689036	1.563512851446416	-0.44834747786038387	-0.16160853276456724	1.8702971443597218	-0.588462207674798	-0.1516822360481178	1.7208448188639556	-0.5510000651169014	-0.15821983920692975	1.5819264990105608	-0.5183924975418489	-0.18787423960755786	1.542838793127958	-0.5444879862497071	-0.1767475168462038	1.5510986660459347	-0.5605070669531702	-0.15051682765469818	1.5730852728039935	-0.5051257400184344	-0.1651407051012896	2.0381211234075947	-0.5425402593077004	-0.20108405091532677	2.1031802457771898	-0.5612677705503925	-0.18245440598666215	2.0330217043017593	-0.45542353517803247	-0.19103863945035832	1.9490174389111625	-0.4277171625560019	-0.20360415238852364	1.8772804015829985	-0.40754518508544396	-0.14273588468915496	2.0412201557634027	-0.6284936763783698	-0.13341344660707835	1.9567064954296995	-0.6372154582371868	-0.13919855666339126	1.8754486751158934	-0.6506298554131469
15	0.5	-0.17616334815349496	1.87275195687978	-0.5336757899011935	-0.19195222432784387	1.8697331117485076	-0.4673747490917927	-0.17668198827034562	1.7263213401299233	-0.461314948869506	-0.18843835188922445	1.67406248833791	-0.43714442783672414							-0.16339081655689036	1.563512851446416	-0.44834747786038387	-0.16330487023320006	1.873903687412864	-0.586628678137267	-0.1549499672962733	1.7259335529540376	-0.547987134125176	-0.15771723421622086	1.5818532197512627	-0.5192186488787988	-0.1910317818691671	1.5435937215944107	-0.5453185697145813	-0.17684446770686307	1.5519315666625735	-0.56024148357718	-0.15021278920494952	1.5740611566044327	-0.5056733888358591	-0.16513022000250707	2.038153631393823	-0.5425327245930981	-0.1992329175703108	2.1019354664633325	-0.5635368442468839	-0.1824152475976461	2.033009375648812	-0.4554033863533193	-0.19102430602871265	1.9465289585199086	-0.4273273279704032	-0.2049902807218965	1.869871900679256	-0.41233591102950595	-0.14274774423306327	2.0412316871184504	-0.6285348494518792	-0.13426311370057772	1.9575620135000498	-0.6402776737606334	-0.1386060661804067	1.8742856451801253	-0.6474617001860221
16	0.5333333333333333	-0.17612662379608632	1.8725950344975182	-0.5337116246780561	-0.19101598310137932	1.8698147134391805	-0.472833493812158	-0.17941387075709694	1.7211439622467681	-0.4576474578448785	-0.18843835188922445	1.67406248833791	-0.43714442783672414							-0.16339081655689036	1.563512851446416	-0.44834747786038387	-0.16140275456990807	1.8726986263749237	-0.5886596931990615	-0.15445648488957003	1.7225238740635391	-0.5522113994217188	-0.158385158037405	1.5802130652881885	-0.5178253769481831	-0.1888947708081701	1.5422472787140444	-0.5389352569079539	-0.17692871476926292	1.551815731682492	-0.56015429944564	-0.14844452771062694	1.5707547476278607	-0.50646366056324	-0.1651318741097233	2.038169301455852	-0.5425564398767846	-0.19922951125677255	2.1019829314048772	-0.5635848237111745	-0.18247630708063403	2.033017748246033	-0.4554233855940775	-0.19104676220203304	1.9465428987402074	-0.4273672685122143	-0.20501229925932385	1.8743293271904262	-0.4130927157844251	-0.14269676349037488	2.0412958084951636	-0.6285226502548688	-0.134239289823249	1.9569585636824647	-0.640323242260562	-0.13834451829877034	1.8742101202627994	-0.6473783881826506
17	0.5666666666666667	-0.17624962246339618	1.871626425322125	-0.5335558158198834	-0.1902711043048701	1.8697633960642872	-0.46962800687680956	-0.17916929741949447	1.7222261266501688	-0.4580256769364506	-0.18843835188922445	1.67406248833791	-0.43714442783672414							-0.16339081655689036	1.563512851446416	-0.44834747786038387	-0.1613908992490123	1.8729813375709756	-0.5886786005701434	-0.15138667246594723	1.7216118115046537	-0.5513779857972666	-0.15796096710401586	1.5805456168081464	-0.5186574755914849	-0.1898713632300754	1.542842754532401	-0.5420356772888342	-0.1758448742025585	1.551572442580642	-0.556947730245795	-0.150250495955052	1.5719627129857634	-0.5051273115402192	-0.16430019666187923	2.038039147196382	-0.539538126610217	-0.19921581078121386	2.1018791481049415	-0.5635740116833055	-0.1824253419112561	2.033018658036667	-0.45528986944758965	-0.19099457688875546	1.9452201757195269	-0.4268247051127	-0.20783992919363337	1.863956680924264	-0.4124925221639141	-0.1446852782948635	2.0412772564887884	-0.6262432345231297	-0.13135203159561734	1.9563969130665388	-0.6393186166649474	-0.1385050732250376	1.8735098365447176	-0.6475204789261133
18	0.6	-0.17842273738438258	1.870305788830769	-0.5311694261336187	-0.1933285226624447	1.8686912338753412	-0.4704969121284566	-0.1784646468970198	1.7210825514416626	-0.4543655179270408	-0.18843835188922445	1.67406248833791	-0.43714442783672414							-0.16339081655689036	1.563512851446416	-0.44834747786038387	-0.16362445909808793	1.8719306870342465	-0.5862477237602289	-0.15351609388255752	1.722030587825278	-0.5490238865615364	-0.15811408084835274	1.5816519733342165	-0.5184177883484555	-0.18972187136662724	1.5447234587524918	-0.5426328946876356	-0.17588007699118516	1.5518539042206998	-0.5569482334496476	-0.15046882751423332	1.575585431934705	-0.5054473417213727	-0.16437472390536606	2.0369974637503243	-0.5396529328879077	-0.1992189257821192	2.101857187658881	-0.5635928166179585	-0.18245167256968134	2.0330173270515197	-0.4552994092122651	-0.19283142875630355	1.9475067045676127	-0.42512162693408084	-0.20397675968385334	1.8691979287875793	-0.40915867200325245	-0.14268225891244882	2.041387308076311	-0.6284384109685149	-0.13341238057544794	1.9565346765465552	-0.6366097523858687	-0.1406651141840053	1.8741569746341236	-0.6451377071970493
